# 3ds Max Wavefront OBJ Exporter v0.97b - (c)2007 guruware
# File Created: 10.07.2019 21:31:37

mtllib MadeiraTopo.mtl

#
# object FlatWoodTop
#

v  79.1566 98.4145 138.4866
v  68.1362 98.4145 -149.9488
v  -78.2120 98.4145 -138.9309
v  84.7214 98.4145 -172.3477
v  93.7053 98.4145 -167.9598
v  99.8998 98.4145 -160.2328
v  101.6075 98.4145 155.4590
v  97.2209 98.4145 164.4455
v  89.4939 98.4145 170.6387
v  79.5210 98.4145 172.9482
v  -84.7214 98.4145 172.3477
v  -93.7053 98.4145 167.9598
v  -99.8998 98.4145 160.2328
v  -102.2080 98.4145 150.2624
v  -101.6075 98.4145 -155.4590
v  -97.2209 98.4145 -164.4455
v  -89.4939 98.4145 -170.6387
v  -79.5210 98.4145 -172.9482
v  -67.1916 98.4145 149.5057
v  79.5210 98.4145 -172.9482
v  89.4939 98.4145 -170.6387
v  97.2209 98.4145 -164.4455
v  101.6075 98.4145 -155.4590
v  102.2080 98.4145 150.2624
v  99.8998 98.4145 160.2328
v  93.7053 98.4145 167.9598
v  84.7214 98.4145 172.3477
v  -79.5210 98.4145 172.9482
v  -89.4939 98.4145 170.6387
v  -97.2209 98.4145 164.4455
v  -101.6075 98.4145 155.4590
v  -102.2080 98.4145 -150.2624
v  -99.8998 98.4145 -160.2328
v  -93.7053 98.4145 -167.9598
v  -84.7214 98.4145 -172.3477
v  -102.2080 98.4145 9.7660
v  -102.2080 98.4145 -9.7660
v  -78.2120 98.4145 -9.9539
v  -78.2120 98.4145 9.5108
v  79.1566 98.4145 9.5108
v  79.1566 98.4145 -9.9539
v  102.2080 98.4145 -9.7660
v  102.2080 98.4145 9.7660
v  90.7369 98.4145 3.6718
v  90.7369 98.4145 -4.1149
v  102.2080 98.4145 -3.2553
v  102.2080 98.4145 3.2553
v  -102.2080 98.4145 3.2553
v  -102.2080 98.4145 -3.2553
v  -88.7702 98.4145 -4.1149
v  -88.7702 98.4145 3.6718
v  90.1694 98.4145 149.8663
v  79.3267 98.4145 160.5236
v  68.1362 98.4145 149.5057
v  79.3318 98.4145 -160.9667
v  90.1732 98.4145 -150.0986
v  79.1566 98.4145 -138.9309
v  -89.2286 98.4145 -150.0923
v  -78.8392 98.4145 -160.9502
v  -67.1916 98.4145 -149.9488
v  -78.8265 98.4145 160.5071
v  -89.2235 98.4145 149.8523
v  -78.2120 98.4145 138.4866
v  -69.6838 98.4145 155.3435
v  -84.4306 98.4145 142.8300
v  69.9708 98.4145 154.9232
v  85.0731 98.4145 141.8041
v  -83.8187 98.4145 -142.1850
v  -69.3410 98.4145 -155.4387
v  70.0901 98.4145 -155.4895
v  84.6312 98.4145 -142.0555
v  102.2080 98.4145 -150.2624
# 72 vertices

vn 0.0000 1.0000 -0.0000
vn 0.0000 1.0000 -0.0000
vn 0.0000 1.0000 -0.0000
vn 0.0000 1.0000 -0.0000
vn 0.0000 1.0000 -0.0000
vn 0.0000 1.0000 -0.0000
vn 0.0000 1.0000 -0.0000
vn 0.0000 1.0000 -0.0000
vn 0.0000 1.0000 -0.0000
vn 0.0000 1.0000 -0.0000
vn 0.0000 1.0000 -0.0000
vn 0.0000 1.0000 -0.0000
vn 0.0000 1.0000 -0.0000
vn 0.0000 1.0000 -0.0000
vn 0.0000 1.0000 -0.0000
vn 0.0000 1.0000 -0.0000
vn 0.0000 1.0000 -0.0000
vn 0.0000 1.0000 -0.0000
vn 0.0000 1.0000 -0.0000
vn 0.0000 1.0000 -0.0000
vn 0.0000 1.0000 -0.0000
vn 0.0000 1.0000 -0.0000
vn 0.0000 1.0000 -0.0000
vn 0.0000 1.0000 -0.0000
vn 0.0000 1.0000 -0.0000
vn 0.0000 1.0000 -0.0000
vn 0.0000 1.0000 -0.0000
vn 0.0000 1.0000 -0.0000
vn 0.0000 1.0000 -0.0000
vn 0.0000 1.0000 -0.0000
vn 0.0000 1.0000 -0.0000
vn 0.0000 1.0000 -0.0000
vn 0.0000 1.0000 -0.0000
vn 0.0000 1.0000 -0.0000
vn 0.0000 1.0000 -0.0000
vn 0.0000 1.0000 -0.0000
vn 0.0000 1.0000 -0.0000
vn 0.0000 1.0000 -0.0000
vn 0.0000 1.0000 -0.0000
vn 0.0000 1.0000 -0.0000
vn 0.0000 1.0000 -0.0000
vn 0.0000 1.0000 -0.0000
vn 0.0000 -1.0000 -0.0000
vn 0.0000 1.0000 -0.0000
vn 0.0000 1.0000 -0.0000
vn 0.0000 1.0000 -0.0000
vn 0.0000 1.0000 -0.0000
vn 0.0000 1.0000 -0.0000
vn 0.0000 1.0000 -0.0000
vn 0.0000 1.0000 -0.0000
vn 0.0000 1.0000 -0.0000
vn 0.0000 1.0000 -0.0000
vn 0.0000 1.0000 -0.0000
vn 0.0000 1.0000 -0.0000
vn 0.0000 1.0000 -0.0000
vn 0.0000 1.0000 -0.0000
vn 0.0000 1.0000 -0.0000
vn 0.0000 1.0000 -0.0000
vn 0.0000 1.0000 -0.0000
vn 0.0000 1.0000 -0.0000
vn 0.0000 1.0000 -0.0000
vn 0.0000 1.0000 -0.0000
vn 0.0000 1.0000 -0.0000
vn 0.0000 1.0000 -0.0000
vn 0.0000 1.0000 -0.0000
vn 0.0000 1.0000 -0.0000
vn 0.0000 1.0000 -0.0000
vn 0.0000 1.0000 -0.0000
vn 0.0000 1.0000 -0.0000
vn 0.0000 1.0000 -0.0000
vn 0.0000 1.0000 -0.0000
vn 0.0000 1.0000 -0.0000
vn 0.0000 1.0000 -0.0000
vn 0.0000 1.0000 -0.0000
vn 0.0000 1.0000 -0.0000
vn 0.0000 1.0000 -0.0000
vn 0.0000 1.0000 -0.0000
vn 0.0000 1.0000 -0.0000
vn 0.0000 1.0000 -0.0000
vn 0.0000 1.0000 -0.0000
vn 0.0000 1.0000 -0.0000
vn 0.0000 1.0000 -0.0000
vn 0.0000 1.0000 -0.0000
vn 0.0000 1.0000 -0.0000
vn 0.0000 1.0000 -0.0000
vn 0.0000 1.0000 -0.0000
vn 0.0000 1.0000 -0.0000
vn 0.0000 1.0000 -0.0000
vn 0.0000 1.0000 -0.0000
vn 0.0000 1.0000 -0.0000
vn 0.0000 1.0000 -0.0000
vn 0.0000 1.0000 -0.0000
vn 0.0000 1.0000 -0.0000
vn 0.0000 1.0000 -0.0000
vn 0.0000 1.0000 -0.0000
vn 0.0000 1.0000 -0.0000
vn 0.0000 1.0000 -0.0000
vn 0.0000 1.0000 -0.0000
vn 0.0000 -1.0000 -0.0000
vn 0.0000 1.0000 -0.0000
vn 0.0000 1.0000 -0.0000
vn 0.0000 1.0000 -0.0000
vn 0.0000 1.0000 -0.0000
vn 0.0000 1.0000 -0.0000
vn 0.0000 1.0000 -0.0000
vn 0.0000 1.0000 -0.0000
vn 0.0000 1.0000 -0.0000
vn 0.0000 1.0000 -0.0000
vn 0.0000 1.0000 -0.0000
vn 0.0000 1.0000 -0.0000
vn 0.0000 1.0000 -0.0000
vn 0.0000 1.0000 -0.0000
vn 0.0000 1.0000 -0.0000
vn 0.0000 1.0000 -0.0000
vn 0.0000 1.0000 -0.0000
vn 0.0000 1.0000 -0.0000
vn 0.0000 1.0000 -0.0000
vn 0.0000 1.0000 -0.0000
vn 0.0000 1.0000 -0.0000
vn 0.0000 1.0000 -0.0000
vn 0.0000 1.0000 -0.0000
vn 0.0000 1.0000 -0.0000
vn 0.0000 1.0000 -0.0000
vn 0.0000 1.0000 -0.0000
vn 0.0000 1.0000 -0.0000
vn 0.0000 1.0000 -0.0000
vn 0.0000 1.0000 -0.0000
vn 0.0000 1.0000 -0.0000
vn 0.0000 1.0000 -0.0000
vn 0.0000 1.0000 -0.0000
vn 0.0000 1.0000 -0.0000
vn 0.0000 1.0000 -0.0000
vn 0.0000 1.0000 -0.0000
vn 0.0000 1.0000 -0.0000
vn 0.0000 1.0000 -0.0000
vn 0.0000 1.0000 -0.0000
vn 0.0000 1.0000 -0.0000
vn 0.0000 1.0000 -0.0000
vn 0.0000 1.0000 -0.0000
vn 0.0000 1.0000 -0.0000
vn 0.0000 1.0000 -0.0000
vn 0.0000 1.0000 -0.0000
vn 0.0000 1.0000 -0.0000
vn 0.0000 1.0000 -0.0000
vn 0.0000 1.0000 -0.0000
vn 0.0000 1.0000 -0.0000
vn 0.0000 1.0000 -0.0000
vn 0.0000 1.0000 -0.0000
vn 0.0000 1.0000 -0.0000
vn 0.0000 1.0000 -0.0000
vn 0.0000 1.0000 -0.0000
vn 0.0000 1.0000 -0.0000
# 152 vertex normals

vt 1.7745 0.3985 0.5000
vt 1.6666 3.7340 0.5000
vt 0.2348 3.6066 0.5000
vt 1.8289 3.9931 0.5000
vt 1.9168 3.9423 0.5000
vt 1.9774 3.8530 0.5000
vt 1.9941 0.2022 0.5000
vt 1.9512 0.0983 0.5000
vt 1.8756 0.0267 0.5000
vt 1.7780 0.0000 0.5000
vt 0.1711 0.0069 0.5000
vt 0.0832 0.0577 0.5000
vt 0.0226 0.1470 0.5000
vt 0.0000 0.2623 0.5000
vt 0.0059 3.7978 0.5000
vt 0.0488 3.9017 0.5000
vt 0.1244 3.9733 0.5000
vt 0.2220 4.0000 0.5000
vt 0.3426 0.2711 0.5000
vt 1.7780 4.0000 0.5000
vt 1.8756 3.9733 0.5000
vt 1.9512 3.9017 0.5000
vt 1.9941 3.7978 0.5000
vt 2.0000 0.2623 0.5000
vt 1.9774 0.1470 0.5000
vt 1.9168 0.0577 0.5000
vt 1.8289 0.0069 0.5000
vt 0.2220 0.0000 0.5000
vt 0.1244 0.0267 0.5000
vt 0.0488 0.0983 0.5000
vt 0.0059 0.2022 0.5000
vt 0.0000 3.7377 0.5000
vt 0.0226 3.8530 0.5000
vt 0.0832 3.9423 0.5000
vt 0.1711 3.9931 0.5000
vt 0.0000 1.8871 0.5000
vt 0.0000 2.1129 0.5000
vt 0.2348 2.1151 0.5000
vt 0.2348 1.8900 0.5000
vt 1.7745 1.8900 0.5000
vt 1.7745 2.1151 0.5000
vt 2.0000 2.1129 0.5000
vt 2.0000 1.8871 0.5000
vt 1.8878 1.9575 0.5000
vt 1.8878 2.0476 0.5000
vt 2.0000 2.0376 0.5000
vt 2.0000 1.9624 0.5000
vt 0.0000 1.9624 0.5000
vt 0.0000 2.0376 0.5000
vt 0.1315 2.0476 0.5000
vt 0.1315 1.9575 0.5000
vt 1.8822 0.2669 0.5000
vt 1.7761 0.1437 0.5000
vt 1.6666 0.2711 0.5000
vt 1.7762 3.8614 0.5000
vt 1.8823 3.7358 0.5000
vt 1.7745 3.6066 0.5000
vt 0.1270 3.7357 0.5000
vt 0.2286 3.8613 0.5000
vt 0.3426 3.7340 0.5000
vt 0.2288 0.1439 0.5000
vt 0.1270 0.2671 0.5000
vt 0.2348 0.3985 0.5000
vt 0.3182 0.2036 0.5000
vt 0.1739 0.3483 0.5000
vt 1.6846 0.2084 0.5000
vt 1.8324 0.3602 0.5000
vt 0.1799 3.6442 0.5000
vt 0.3216 3.7975 0.5000
vt 1.6858 3.7981 0.5000
vt 1.8280 3.6428 0.5000
vt 2.0000 3.7377 0.5000
# 72 texture coords

g FlatWoodTop
usemtl WoodTop
s 1
f 49/49/1 48/48/2 51/51/3 50/50/4 
f 46/46/5 45/45/6 44/44/7 47/47/8 
f 37/37/9 38/38/10 3/3/11 32/32/12 
f 68/68/13 58/58/14 32/32/15 3/3/16 
f 24/24/17 1/1/18 67/67/19 52/52/20 
f 43/43/21 40/40/22 1/1/23 24/24/24 
f 42/42/25 41/41/26 45/45/27 46/46/28 
f 43/43/29 47/47/30 44/44/31 40/40/32 
f 37/37/33 49/49/34 50/50/35 38/38/36 
f 36/36/37 39/39/38 51/51/39 48/48/40 
f 20/20/41 2/2/42 70/70/43 55/55/44 
f 2/2/45 59/59/46 69/69/47 60/60/48 
f 2/2/49 20/20/50 18/18/51 59/59/52 
f 32/32/53 35/35/54 33/33/55 15/15/56 
f 33/33/57 35/35/58 34/34/59 16/16/60 
f 34/34/61 35/35/62 17/17/63 
f 35/35/64 32/32/65 58/58/66 18/18/67 
f 59/59/68 18/18/69 58/58/70 
f 41/41/71 56/56/72 71/71/73 57/57/74 
f 42/42/75 72/72/76 56/56/77 41/41/78 
f 20/20/79 23/23/80 21/21/81 4/4/82 
f 21/21/83 23/23/84 22/22/85 5/5/86 
f 22/22/87 23/23/88 6/6/89 
f 23/23/90 20/20/91 55/55/92 72/72/93 
f 56/56/94 72/72/95 55/55/96 
f 28/28/97 19/19/98 64/64/99 61/61/100 
f 10/10/101 53/53/102 19/19/103 28/28/104 
f 19/19/105 53/53/106 66/66/107 54/54/108 
f 24/24/109 27/27/110 25/25/111 7/7/112 
f 25/25/113 27/27/114 26/26/115 8/8/116 
f 26/26/117 27/27/118 9/9/119 
f 27/27/120 24/24/121 52/52/122 10/10/123 
f 53/53/124 10/10/125 52/52/126 
f 39/39/127 62/62/128 65/65/129 63/63/130 
f 36/36/131 14/14/132 62/62/133 39/39/134 
f 28/28/135 31/31/136 29/29/137 11/11/138 
f 29/29/139 31/31/140 30/30/141 12/12/142 
f 30/30/143 31/31/144 13/13/145 
f 31/31/146 28/28/147 61/61/148 14/14/149 
f 62/62/150 14/14/151 61/61/152 
# 32 polygons - 8 triangles

