# 3ds Max Wavefront OBJ Exporter v0.97b - (c)2007 guruware
# File Created: 11.07.2019 22:49:20

#
# object FlatWoodTop
#

v  0.79156578 0.98414475 1.38486552
v  0.68136156 0.98414475 -1.49948800
v  -0.78211963 0.98414475 -1.38930917
v  0.84721380 0.98414475 -1.72347689
v  0.93705302 0.98414475 -1.67959821
v  0.99899846 0.98414475 -1.60232842
v  1.01607502 0.98414475 1.55459011
v  0.97220922 0.98414475 1.64445472
v  0.89493930 0.98414475 1.70638740
v  0.79520959 0.98414475 1.72948205
v  -0.84721380 0.98414475 1.72347689
v  -0.93705302 0.98414475 1.67959821
v  -0.99899846 0.98414475 1.60232842
v  -1.02208042 0.98414475 1.50262403
v  -1.01607502 0.98414475 -1.55459011
v  -0.97220922 0.98414475 -1.64445472
v  -0.89493930 0.98414475 -1.70638740
v  -0.79520959 0.98414475 -1.72948205
v  -0.67191547 0.98414475 1.49505699
v  0.79520959 0.98414475 -1.72948205
v  0.89493930 0.98414475 -1.70638740
v  0.97220922 0.98414475 -1.64445472
v  1.01607502 0.98414475 -1.55459011
v  1.02208042 0.98414475 1.50262403
v  0.99899846 0.98414475 1.60232842
v  0.93705302 0.98414475 1.67959821
v  0.84721380 0.98414475 1.72347689
v  -0.79520959 0.98414475 1.72948205
v  -0.89493930 0.98414475 1.70638740
v  -0.97220922 0.98414475 1.64445472
v  -1.01607502 0.98414475 1.55459011
v  -1.02208042 0.98414475 -1.50262403
v  -0.99899846 0.98414475 -1.60232842
v  -0.93705302 0.98414475 -1.67959821
v  -0.84721380 0.98414475 -1.72347689
v  -1.02208042 0.98414475 0.09766024
v  -1.02208042 0.98414475 -0.09766018
v  -0.78211963 0.98414475 -0.09953924
v  -0.78211963 0.98414475 0.09510828
v  0.79156578 0.98414475 0.09510828
v  0.79156578 0.98414475 -0.09953924
v  1.02208042 0.98414475 -0.09766018
v  1.02208042 0.98414475 0.09766024
v  0.90736896 0.98414475 0.03671783
v  0.90736896 0.98414475 -0.04114880
v  1.02208042 0.98414475 -0.03255337
v  1.02208042 0.98414475 0.03255343
v  -1.02208042 0.98414475 0.03255343
v  -1.02208042 0.98414475 -0.03255337
v  -0.88770241 0.98414475 -0.04114880
v  -0.88770241 0.98414475 0.03671783
v  0.90169376 0.98414475 1.49866271
v  0.79326707 0.98414475 1.60523582
v  0.68136156 0.98414475 1.49505699
v  0.79331785 0.98414475 -1.60966671
v  0.90173185 0.98414475 -1.50098610
v  0.79156578 0.98414475 -1.38930917
v  -0.89228582 0.98414475 -1.50092268
v  -0.78839165 0.98414475 -1.60950172
v  -0.67191547 0.98414475 -1.49948800
v  -0.78826469 0.98414475 1.60507071
v  -0.89223504 0.98414475 1.49852312
v  -0.78211963 0.98414475 1.38486552
v  -0.69683838 0.98414475 1.55343473
v  -0.84430629 0.98414475 1.42829955
v  0.69970769 0.98414475 1.54923224
v  0.85073066 0.98414475 1.41804087
v  -0.83818668 0.98414475 -1.42184997
v  -0.69341040 0.98414475 -1.55438685
v  0.70090127 0.98414475 -1.55489480
v  0.84631228 0.98414475 -1.42055488
v  1.02208042 0.98414475 -1.50262403
# 72 vertices

vn 0.00000000 1.00000000 -0.00000000
vn 0.00000000 1.00000000 -0.00000000
vn 0.00000000 1.00000000 -0.00000000
vn 0.00000000 1.00000000 -0.00000000
vn 0.00000000 1.00000000 -0.00000000
vn 0.00000000 1.00000000 -0.00000000
vn 0.00000000 1.00000000 -0.00000000
vn 0.00000000 1.00000000 -0.00000000
vn 0.00000000 1.00000000 -0.00000000
vn 0.00000000 1.00000000 -0.00000000
vn 0.00000000 1.00000000 -0.00000000
vn 0.00000000 1.00000000 -0.00000000
vn 0.00000000 1.00000000 -0.00000000
vn 0.00000000 1.00000000 -0.00000000
vn 0.00000000 1.00000000 -0.00000000
vn 0.00000000 1.00000000 -0.00000000
vn 0.00000000 1.00000000 -0.00000000
vn 0.00000000 1.00000000 -0.00000000
vn 0.00000000 1.00000000 -0.00000000
vn 0.00000000 1.00000000 -0.00000000
vn 0.00000000 1.00000000 -0.00000000
vn 0.00000000 1.00000000 -0.00000000
vn 0.00000000 1.00000000 -0.00000000
vn 0.00000000 1.00000000 -0.00000000
vn 0.00000000 1.00000000 -0.00000000
vn 0.00000000 1.00000000 -0.00000000
vn 0.00000000 1.00000000 -0.00000000
vn 0.00000000 1.00000000 -0.00000000
vn 0.00000000 1.00000000 -0.00000000
vn 0.00000000 1.00000000 -0.00000000
vn 0.00000000 1.00000000 -0.00000000
vn 0.00000000 1.00000000 -0.00000000
vn 0.00000000 1.00000000 -0.00000000
vn 0.00000000 1.00000000 -0.00000000
vn 0.00000000 1.00000000 -0.00000000
vn 0.00000000 1.00000000 -0.00000000
vn 0.00000000 1.00000000 -0.00000000
vn 0.00000000 1.00000000 -0.00000000
vn 0.00000000 1.00000000 -0.00000000
vn 0.00000000 1.00000000 -0.00000000
vn 0.00000000 1.00000000 -0.00000000
vn 0.00000000 1.00000000 -0.00000000
vn 0.00000000 -1.00000000 -0.00000000
vn 0.00000000 1.00000000 -0.00000000
vn 0.00000000 1.00000000 -0.00000000
vn 0.00000000 1.00000000 -0.00000000
vn 0.00000000 1.00000000 -0.00000000
vn 0.00000000 1.00000000 -0.00000000
vn 0.00000000 1.00000000 -0.00000000
vn 0.00000000 1.00000000 -0.00000000
vn 0.00000000 1.00000000 -0.00000000
vn 0.00000000 1.00000000 -0.00000000
vn 0.00000000 1.00000000 -0.00000000
vn 0.00000000 1.00000000 -0.00000000
vn 0.00000000 1.00000000 -0.00000000
vn 0.00000000 1.00000000 -0.00000000
vn 0.00000000 1.00000000 -0.00000000
vn 0.00000000 1.00000000 -0.00000000
vn 0.00000000 1.00000000 -0.00000000
vn 0.00000000 1.00000000 -0.00000000
vn 0.00000000 1.00000000 -0.00000000
vn 0.00000000 1.00000000 -0.00000000
vn 0.00000000 1.00000000 -0.00000000
vn 0.00000000 1.00000000 -0.00000000
vn 0.00000000 1.00000000 -0.00000000
vn 0.00000000 1.00000000 -0.00000000
vn 0.00000000 1.00000000 -0.00000000
vn 0.00000000 1.00000000 -0.00000000
vn 0.00000000 1.00000000 -0.00000000
vn 0.00000000 1.00000000 -0.00000000
vn 0.00000000 1.00000000 -0.00000000
vn 0.00000000 1.00000000 -0.00000000
vn 0.00000000 1.00000000 -0.00000000
vn 0.00000000 1.00000000 -0.00000000
vn 0.00000000 1.00000000 -0.00000000
vn 0.00000000 1.00000000 -0.00000000
vn 0.00000000 1.00000000 -0.00000000
vn 0.00000000 1.00000000 -0.00000000
vn 0.00000000 1.00000000 -0.00000000
vn 0.00000000 1.00000000 -0.00000000
vn 0.00000000 1.00000000 -0.00000000
vn 0.00000000 1.00000000 -0.00000000
vn 0.00000000 1.00000000 -0.00000000
vn 0.00000000 1.00000000 -0.00000000
vn 0.00000000 1.00000000 -0.00000000
vn 0.00000000 1.00000000 -0.00000000
vn 0.00000000 1.00000000 -0.00000000
vn 0.00000000 1.00000000 -0.00000000
vn 0.00000000 1.00000000 -0.00000000
vn 0.00000000 1.00000000 -0.00000000
vn 0.00000000 1.00000000 -0.00000000
vn 0.00000000 1.00000000 -0.00000000
vn 0.00000000 1.00000000 -0.00000000
vn 0.00000000 1.00000000 -0.00000000
vn 0.00000000 1.00000000 -0.00000000
vn 0.00000000 1.00000000 -0.00000000
vn 0.00000000 1.00000000 -0.00000000
vn 0.00000000 1.00000000 -0.00000000
vn 0.00000000 -1.00000000 -0.00000000
vn 0.00000000 1.00000000 -0.00000000
vn 0.00000000 1.00000000 -0.00000000
vn 0.00000000 1.00000000 -0.00000000
vn 0.00000000 1.00000000 -0.00000000
vn 0.00000000 1.00000000 -0.00000000
vn 0.00000000 1.00000000 -0.00000000
vn 0.00000000 1.00000000 -0.00000000
vn 0.00000000 1.00000000 -0.00000000
vn 0.00000000 1.00000000 -0.00000000
vn 0.00000000 1.00000000 -0.00000000
vn 0.00000000 1.00000000 -0.00000000
vn 0.00000000 1.00000000 -0.00000000
vn 0.00000000 1.00000000 -0.00000000
vn 0.00000000 1.00000000 -0.00000000
vn 0.00000000 1.00000000 -0.00000000
vn 0.00000000 1.00000000 -0.00000000
vn 0.00000000 1.00000000 -0.00000000
vn 0.00000000 1.00000000 -0.00000000
vn 0.00000000 1.00000000 -0.00000000
vn 0.00000000 1.00000000 -0.00000000
vn 0.00000000 1.00000000 -0.00000000
vn 0.00000000 1.00000000 -0.00000000
vn 0.00000000 1.00000000 -0.00000000
vn 0.00000000 1.00000000 -0.00000000
vn 0.00000000 1.00000000 -0.00000000
vn 0.00000000 1.00000000 -0.00000000
vn 0.00000000 1.00000000 -0.00000000
vn 0.00000000 1.00000000 -0.00000000
vn 0.00000000 1.00000000 -0.00000000
vn 0.00000000 1.00000000 -0.00000000
vn 0.00000000 1.00000000 -0.00000000
vn 0.00000000 1.00000000 -0.00000000
vn 0.00000000 1.00000000 -0.00000000
vn 0.00000000 1.00000000 -0.00000000
vn 0.00000000 1.00000000 -0.00000000
vn 0.00000000 1.00000000 -0.00000000
vn 0.00000000 1.00000000 -0.00000000
vn 0.00000000 1.00000000 -0.00000000
vn 0.00000000 1.00000000 -0.00000000
vn 0.00000000 1.00000000 -0.00000000
vn 0.00000000 1.00000000 -0.00000000
vn 0.00000000 1.00000000 -0.00000000
vn 0.00000000 1.00000000 -0.00000000
vn 0.00000000 1.00000000 -0.00000000
vn 0.00000000 1.00000000 -0.00000000
vn 0.00000000 1.00000000 -0.00000000
vn 0.00000000 1.00000000 -0.00000000
vn 0.00000000 1.00000000 -0.00000000
vn 0.00000000 1.00000000 -0.00000000
vn 0.00000000 1.00000000 -0.00000000
vn 0.00000000 1.00000000 -0.00000000
vn 0.00000000 1.00000000 -0.00000000
vn 0.00000000 1.00000000 -0.00000000
# 152 vertex normals

vt 1.77446461 0.39851987 0.49999952
vt 1.66664195 3.73403072 0.49999952
vt 0.23477739 3.60661888 0.49999952
vt 1.82891107 3.99305487 0.49999952
vt 1.91680956 3.94231296 0.49999952
vt 1.97741663 3.85295701 0.49999952
vt 1.99412358 0.20224786 0.49999952
vt 1.95120549 0.09832692 0.49999952
vt 1.87560475 0.02670705 0.49999952
vt 1.77802956 0.00000012 0.49999952
vt 0.17108887 0.00694513 0.49999952
vt 0.08319050 0.05768704 0.49999952
vt 0.02258337 0.14704299 0.49999952
vt 0.00000006 0.26234269 0.49999952
vt 0.00587642 3.79775214 0.49999952
vt 0.04879457 3.90167308 0.49999952
vt 0.12439525 3.97329283 0.49999952
vt 0.22197044 4.00000000 0.49999952
vt 0.34260011 0.27109325 0.49999952
vt 1.77803040 3.99999952 0.49999952
vt 1.87560558 3.97329235 0.49999952
vt 1.95120621 3.90167260 0.49999952
vt 1.99412429 3.79775167 0.49999952
vt 1.99999928 0.26234221 0.49999952
vt 1.97741592 0.14704251 0.49999952
vt 1.91680861 0.05768657 0.49999952
vt 1.82891035 0.00694466 0.49999952
vt 0.22196960 0.00000060 0.49999952
vt 0.12439442 0.02670753 0.49999952
vt 0.04879385 0.09832740 0.49999952
vt 0.00587571 0.20224833 0.49999952
vt 0.00000077 3.73765779 0.49999952
vt 0.02258408 3.85295749 0.49999952
vt 0.08319134 3.94231343 0.49999952
vt 0.17108971 3.99305534 0.49999952
vt 0.00000042 1.88706446 0.49999952
vt 0.00000042 2.11293602 0.49999952
vt 0.23477709 2.11510897 0.49999952
vt 0.23477709 1.89001548 0.49999952
vt 1.77446485 1.89001513 0.49999952
vt 1.77446485 2.11510849 0.49999952
vt 1.99999952 2.11293554 0.49999952
vt 1.99999952 1.88706386 0.49999952
vt 1.88776636 1.95753872 0.49999952
vt 1.88776636 2.04758477 0.49999952
vt 1.99999952 2.03764486 0.49999952
vt 1.99999952 1.96235442 0.49999952
vt 0.00000042 1.96235502 0.49999952
vt 0.00000042 2.03764558 0.49999952
vt 0.13147539 2.04758525 0.49999952
vt 0.13147539 1.95753920 0.49999952
vt 1.88221335 0.26692307 0.49999952
vt 1.77612913 0.14368033 0.49999952
vt 1.66664124 0.27109277 0.49999952
vt 1.77617955 3.86144304 0.49999952
vt 1.88225138 3.73576331 0.49999952
vt 1.77446520 3.60661840 0.49999952
vt 0.12699133 3.73569036 0.49999952
vt 0.22864097 3.86125278 0.49999952
vt 0.34260082 3.73403120 0.49999952
vt 0.22876447 0.14387167 0.49999952
vt 0.12704033 0.26708508 0.49999952
vt 0.23477679 0.39852035 0.49999952
vt 0.31821561 0.20358443 0.49999952
vt 0.17393357 0.34829259 0.49999952
vt 1.68459105 0.20844376 0.49999952
vt 1.83235121 0.36015534 0.49999952
vt 0.17992175 3.64424944 0.49999952
vt 0.32157028 3.79751730 0.49999952
vt 1.68575943 3.79810429 0.49999952
vt 1.82802916 3.64275122 0.49999952
vt 2.00000000 3.73765731 0.49999952
# 72 texture coords

g FlatWoodTop
s 1
f 49/49/1 48/48/2 51/51/3 50/50/4 
f 46/46/5 45/45/6 44/44/7 47/47/8 
f 37/37/9 38/38/10 3/3/11 32/32/12 
f 68/68/13 58/58/14 32/32/15 3/3/16 
f 24/24/17 1/1/18 67/67/19 52/52/20 
f 43/43/21 40/40/22 1/1/23 24/24/24 
f 42/42/25 41/41/26 45/45/27 46/46/28 
f 43/43/29 47/47/30 44/44/31 40/40/32 
f 37/37/33 49/49/34 50/50/35 38/38/36 
f 36/36/37 39/39/38 51/51/39 48/48/40 
f 20/20/41 2/2/42 70/70/43 55/55/44 
f 2/2/45 59/59/46 69/69/47 60/60/48 
f 2/2/49 20/20/50 18/18/51 59/59/52 
f 32/32/53 35/35/54 33/33/55 15/15/56 
f 33/33/57 35/35/58 34/34/59 16/16/60 
f 34/34/61 35/35/62 17/17/63 
f 35/35/64 32/32/65 58/58/66 18/18/67 
f 59/59/68 18/18/69 58/58/70 
f 41/41/71 56/56/72 71/71/73 57/57/74 
f 42/42/75 72/72/76 56/56/77 41/41/78 
f 20/20/79 23/23/80 21/21/81 4/4/82 
f 21/21/83 23/23/84 22/22/85 5/5/86 
f 22/22/87 23/23/88 6/6/89 
f 23/23/90 20/20/91 55/55/92 72/72/93 
f 56/56/94 72/72/95 55/55/96 
f 28/28/97 19/19/98 64/64/99 61/61/100 
f 10/10/101 53/53/102 19/19/103 28/28/104 
f 19/19/105 53/53/106 66/66/107 54/54/108 
f 24/24/109 27/27/110 25/25/111 7/7/112 
f 25/25/113 27/27/114 26/26/115 8/8/116 
f 26/26/117 27/27/118 9/9/119 
f 27/27/120 24/24/121 52/52/122 10/10/123 
f 53/53/124 10/10/125 52/52/126 
f 39/39/127 62/62/128 65/65/129 63/63/130 
f 36/36/131 14/14/132 62/62/133 39/39/134 
f 28/28/135 31/31/136 29/29/137 11/11/138 
f 29/29/139 31/31/140 30/30/141 12/12/142 
f 30/30/143 31/31/144 13/13/145 
f 31/31/146 28/28/147 61/61/148 14/14/149 
f 62/62/150 14/14/151 61/61/152 
# 32 polygons - 8 triangles

